<svg xmlns="http://www.w3.org/2000/svg" width="1440" height="900" viewBox="0 0 1440 900" role="img" aria-labelledby="title description">
    <title id="title">account wireframe at 1440 by 900</title>
    <desc id="description">Annotated structural wireframe for DreamShop visual parity review.</desc>
    <style>
      .title { fill: #143f45; font: 700 16px Inter, Arial, sans-serif; }
      .meta { fill: #315d62; font: 500 12px Inter, Arial, sans-serif; }
      .label { fill: #143f45; font: 650 12px Inter, Arial, sans-serif; }
      .number { fill: white; font: 700 12px Inter, Arial, sans-serif; }
    </style>
    <rect width="1440" height="900" fill="#edf7f6"/>
    <rect width="1440" height="76" fill="#c8e9eb"/>
    <text x="24" y="32" class="title">DreamShop · account</text>
    <text x="24" y="54" class="meta">1440×900 · numbered annotations map to the comparison register</text>
    <rect x="24" y="100" width="1392" height="182" rx="12" fill="#f8fbfb" stroke="#50868b" stroke-width="2" stroke-dasharray="7 5"/>
      <circle cx="42" cy="125" r="12" fill="#145f68"/>
      <text x="42" y="129" text-anchor="middle" class="number">1</text>
      <text x="68" y="129" class="label">Store header / account status</text>
      <line x1="42" y1="148" x2="1398" y2="148" stroke="#b9d1d3"/>
      <rect x="42" y="164" width="389" height="14" rx="7" fill="#dceff0"/>
      <rect x="42" y="188" width="807" height="10" rx="5" fill="#e9dddd"/>
<rect x="24" y="298" width="1392" height="182" rx="12" fill="#f8fbfb" stroke="#50868b" stroke-width="2" stroke-dasharray="7 5"/>
      <circle cx="42" cy="323" r="12" fill="#145f68"/>
      <text x="42" y="327" text-anchor="middle" class="number">2</text>
      <text x="68" y="327" class="label">Profile and quick actions</text>
      <line x1="42" y1="346" x2="1398" y2="346" stroke="#b9d1d3"/>
      <rect x="42" y="362" width="389" height="14" rx="7" fill="#dceff0"/>
      <rect x="42" y="386" width="807" height="10" rx="5" fill="#e9dddd"/>
<rect x="24" y="496" width="1392" height="182" rx="12" fill="#f8fbfb" stroke="#50868b" stroke-width="2" stroke-dasharray="7 5"/>
      <circle cx="42" cy="521" r="12" fill="#145f68"/>
      <text x="42" y="525" text-anchor="middle" class="number">3</text>
      <text x="68" y="525" class="label">Saved address / notifications</text>
      <line x1="42" y1="544" x2="1398" y2="544" stroke="#b9d1d3"/>
      <rect x="42" y="560" width="389" height="14" rx="7" fill="#dceff0"/>
      <rect x="42" y="584" width="807" height="10" rx="5" fill="#e9dddd"/>
<rect x="24" y="694" width="1392" height="182" rx="12" fill="#f8fbfb" stroke="#50868b" stroke-width="2" stroke-dasharray="7 5"/>
      <circle cx="42" cy="719" r="12" fill="#145f68"/>
      <text x="42" y="723" text-anchor="middle" class="number">4</text>
      <text x="68" y="723" class="label">Order history and states</text>
      <line x1="42" y1="742" x2="1398" y2="742" stroke="#b9d1d3"/>
      <rect x="42" y="758" width="389" height="14" rx="7" fill="#dceff0"/>
      <rect x="42" y="782" width="807" height="10" rx="5" fill="#e9dddd"/>
  </svg>